<?xml version="1.0" standalone="no"?>
<!DOCTYPE svg PUBLIC "-//W3C//DTD SVG 20010904//EN"
 "http://www.w3.org/TR/2001/REC-SVG-20010904/DTD/svg10.dtd">
<svg version="1.0" xmlns="http://www.w3.org/2000/svg"
 width="693.000000pt" height="674.000000pt" viewBox="0 0 693.000000 674.000000"
 preserveAspectRatio="xMidYMid meet">

<g transform="translate(0.000000,674.000000) scale(0.100000,-0.100000)"
fill="#000000" stroke="none">
<path d="M2260 6734 c-19 -2 -80 -9 -135 -15 -561 -59 -1042 -287 -1441 -684
-289 -288 -416 -566 -384 -844 23 -203 119 -381 304 -567 115 -114 221 -193
362 -267 61 -32 115 -67 121 -77 9 -14 2 -45 -33 -151 -188 -563 -225 -952
-139 -1466 33 -196 132 -573 182 -693 3 -8 7 -20 9 -27 1 -7 9 -26 17 -42 9
-17 18 -44 22 -61 4 -16 11 -30 16 -30 6 0 7 -5 4 -10 -3 -6 -2 -10 2 -10 5 0
9 -10 10 -22 1 -11 7 -24 13 -28 7 -4 11 -11 11 -16 -1 -17 10 -44 19 -44 5 0
7 -7 4 -15 -4 -8 -1 -15 6 -15 6 0 8 -4 5 -10 -3 -5 -1 -10 6 -10 7 0 10 -3 7
-6 -6 -5 32 -83 97 -199 19 -33 38 -70 44 -82 6 -13 35 -58 66 -102 30 -43 55
-81 55 -85 0 -3 7 -14 15 -23 8 -10 48 -63 89 -118 42 -55 90 -116 107 -135
55 -62 101 -137 106 -177 4 -33 1 -42 -30 -74 -52 -53 -274 -167 -430 -221
-83 -29 -103 -32 -207 -32 -101 0 -124 3 -190 28 -68 26 -188 83 -200 96 -3 3
-26 16 -52 29 -27 13 -48 28 -48 32 0 5 -7 9 -15 9 -8 0 -15 4 -15 8 0 4 -14
16 -31 26 -17 10 -66 54 -110 97 -62 63 -88 98 -124 172 -49 99 -75 199 -74
287 0 172 97 440 159 440 30 0 67 -58 119 -189 68 -167 116 -232 203 -277 120
-61 239 -2 294 146 18 49 24 210 11 270 -4 19 -8 41 -9 48 -1 6 -5 12 -9 12
-5 0 -6 6 -3 14 3 7 -2 21 -11 30 -9 9 -14 16 -10 16 15 0 -44 86 -88 126 -74
70 -143 97 -258 102 -108 5 -174 -10 -268 -58 -180 -92 -359 -321 -411 -526
-25 -97 -27 -265 -4 -367 35 -156 132 -317 283 -467 212 -211 525 -381 755
-410 170 -21 332 23 656 180 410 198 531 211 790 80 282 -142 726 -164 1150
-55 393 100 739 280 971 504 55 52 99 100 99 107 0 7 3 14 8 16 4 1 30 35 57
73 65 92 150 181 185 193 21 8 33 7 49 -4 53 -37 70 -123 81 -404 13 -314 46
-467 114 -535 30 -29 76 -33 99 -7 86 96 94 696 27 2092 -34 704 -43 1084 -37
1565 7 555 24 761 83 985 97 369 363 665 639 710 108 17 229 -26 321 -115 62
-61 76 -104 47 -144 -46 -62 -149 -90 -331 -91 -88 0 -195 -24 -211 -48 -3 -5
-14 -11 -23 -15 -10 -3 -18 -12 -18 -19 0 -8 -9 -21 -20 -31 -12 -10 -18 -22
-15 -27 3 -6 2 -10 -3 -10 -6 0 -8 -9 -5 -20 3 -11 1 -20 -5 -20 -6 0 -10 -9
-9 -20 1 -11 5 -20 9 -20 4 0 6 -10 5 -22 -2 -12 6 -36 17 -52 48 -70 70 -96
83 -96 7 0 13 -3 13 -7 0 -10 61 -38 128 -59 38 -12 77 -15 145 -12 81 3 99 8
155 38 166 88 273 294 274 526 1 151 -40 274 -123 367 -43 50 -222 175 -259
182 -12 2 -27 9 -34 14 -6 5 -25 12 -41 15 -17 2 -32 5 -35 6 -3 1 -34 1 -70
1 -55 0 -76 -6 -145 -40 -97 -48 -322 -207 -388 -274 -223 -228 -377 -715
-449 -1417 -17 -168 -17 -934 0 -1085 12 -110 65 -1065 59 -1071 -2 -2 -68
111 -148 252 -79 141 -154 272 -166 292 -12 20 -31 54 -43 75 -12 21 -69 96
-126 165 -185 222 -243 327 -244 437 0 85 11 117 105 315 98 207 139 325 165
478 54 314 -8 646 -188 997 -109 211 -304 408 -562 568 -151 93 -432 212 -550
233 -14 2 -61 11 -105 19 -68 13 -194 20 -298 16 -15 0 -87 -15 -160 -33 -100
-24 -159 -32 -244 -34 -62 -2 -113 1 -113 5 0 4 -11 14 -25 21 -39 21 -61 83
-69 195 -14 204 -82 237 -122 59 -8 -38 -24 -109 -36 -159 -25 -109 -116 -302
-187 -395 -27 -36 -121 -134 -209 -218 -219 -208 -363 -376 -457 -532 -105
-173 -183 -207 -320 -135 -219 114 -389 308 -439 501 -9 34 -16 99 -16 145 0
408 380 762 983 915 498 126 741 113 2107 -117 858 -145 932 -153 1420 -152
633 2 1133 132 1465 381 116 87 266 237 293 294 40 81 26 108 -55 108 -92 0
-218 -53 -528 -220 -276 -149 -427 -164 -920 -94 -163 23 -312 49 -1010 173
-385 69 -775 125 -1090 157 -150 15 -852 29 -945 18z m1161 -1173 c536 -124
885 -538 939 -1113 9 -94 9 -170 1 -311 -17 -283 -50 -441 -111 -537 -99 -155
-233 -89 -506 250 -433 539 -1114 1538 -1114 1635 0 36 114 75 276 95 119 15
417 4 515 -19z m-1282 -286 c52 -44 88 -169 115 -398 55 -453 74 -1519 32
-1695 -30 -122 -80 -162 -206 -162 -85 0 -129 -19 -184 -80 -162 -180 -200
-606 -73 -822 36 -61 120 -138 151 -138 48 0 45 64 -14 320 -51 222 -49 288 9
329 40 29 149 44 268 38 127 -6 168 -24 201 -88 23 -42 23 -51 19 -189 -9
-242 -87 -790 -148 -1031 -69 -272 -148 -391 -242 -360 -74 25 -191 175 -277
356 -150 315 -245 710 -307 1280 -26 240 -26 1226 0 1364 21 113 43 165 91
219 43 47 88 68 256 117 153 45 258 95 316 151 59 58 59 100 0 131 -47 26
-168 21 -307 -10 -134 -31 -165 -33 -186 -12 -14 14 -13 21 2 68 9 29 48 111
87 182 133 245 254 411 323 441 40 18 39 18 74 -11z m510 -747 c43 -90 109
-215 146 -278 80 -134 245 -383 257 -388 4 -2 8 -10 8 -18 0 -8 4 -14 8 -14 5
0 26 -26 48 -57 21 -32 43 -63 49 -69 5 -6 17 -21 25 -34 8 -12 32 -40 52 -63
21 -23 38 -47 38 -53 0 -6 10 -20 23 -31 30 -27 79 -90 78 -98 -1 -3 8 -15 21
-25 13 -11 19 -19 13 -20 -5 0 1 -7 13 -16 12 -8 20 -20 17 -25 -4 -5 -1 -9 4
-9 6 0 11 -5 11 -10 0 -6 9 -20 20 -32 21 -23 18 -41 -5 -32 -8 3 -30 21 -50
40 -56 53 -233 182 -302 220 -150 85 -213 41 -213 -148 0 -211 101 -435 233
-520 95 -61 176 -167 182 -239 1 -14 5 -31 9 -37 8 -14 -11 -101 -29 -129
-136 -208 -578 694 -714 1460 -48 266 -97 828 -74 850 11 12 50 -56 132 -225z
m1188 -1740 c18 -13 77 -68 131 -123 346 -356 859 -1083 838 -1189 -20 -97
-338 -502 -505 -643 -39 -33 -83 -66 -98 -74 -15 -8 -37 -22 -47 -31 -11 -10
-26 -18 -33 -18 -7 0 -13 -4 -13 -8 0 -12 -208 -115 -315 -156 -161 -63 -240
-77 -445 -83 -143 -4 -211 -2 -300 11 -293 43 -507 120 -593 215 -51 56 -52
70 -17 153 72 169 125 490 209 1266 27 250 51 456 54 458 2 2 138 -264 303
-591 164 -327 304 -595 309 -595 10 0 46 76 44 94 0 5 3 12 8 15 15 11 34 52
28 61 -4 6 -1 10 5 10 6 0 8 5 5 10 -3 6 -1 10 5 10 6 0 8 5 5 10 -3 6 -2 10
3 10 10 0 35 50 28 57 -3 3 2 12 10 20 8 8 12 19 9 24 -4 5 -1 9 6 9 7 0 9 3
6 7 -4 3 0 15 10 25 9 10 13 21 10 24 -3 4 1 13 9 21 8 8 12 19 8 24 -3 6 -1
15 4 22 6 7 11 15 11 19 6 38 15 68 20 68 4 0 7 8 8 18 0 9 12 60 26 112 35
128 55 260 63 404 11 224 60 356 133 356 13 0 40 -10 58 -22z"/>
<path d="M6643 4518 c-83 -91 -144 -379 -189 -898 -21 -251 -30 -1041 -15
-1318 7 -114 18 -270 26 -347 15 -150 146 -965 155 -965 5 0 88 626 131 989
101 847 128 1824 63 2266 -17 119 -48 229 -76 267 -24 35 -66 37 -95 6z"/>
<path d="M6553 670 c-80 -59 -140 -234 -114 -335 16 -65 36 -91 85 -115 58
-28 171 -28 226 0 87 44 113 150 71 288 -51 168 -166 237 -268 162z"/>
</g>
</svg>
